HIERARCHY
ROOT Hips
{
	OFFSET 0.000000 0.000000 0.000000
	CHANNELS 6 Xposition Yposition Zposition Yrotation Xrotation Zrotation
	JOINT Chest
	{
		OFFSET 0.000000 -0.009281 11.569106
		CHANNELS 3 Yrotation Xrotation Zrotation
		JOINT Chest2
		{
			OFFSET -0.000000 0.016865 9.269641
			CHANNELS 3 Yrotation Xrotation Zrotation
			JOINT Chest3
			{
				OFFSET -0.000000 0.000001 8.374491
				CHANNELS 3 Yrotation Xrotation Zrotation
				JOINT Chest4
				{
					OFFSET -0.000000 0.000001 8.374493
					CHANNELS 3 Yrotation Xrotation Zrotation
					JOINT Neck
					{
						OFFSET -0.000000 0.000002 12.152554
						CHANNELS 3 Yrotation Xrotation Zrotation
						JOINT Head
						{
							OFFSET -0.000000 0.040101 7.802319
							CHANNELS 3 Yrotation Xrotation Zrotation
							End Site
							{
								OFFSET -0.000000 0.020947 14.853096
							}
						}
					}
					JOINT RightCollar
					{
						OFFSET 2.894404 0.000001 6.791374
						CHANNELS 3 Yrotation Xrotation Zrotation
						JOINT RightShoulder
						{
							OFFSET 13.574684 0.000001 0.000000
							CHANNELS 3 Yrotation Xrotation Zrotation
							JOINT RightElbow
							{
								OFFSET 23.923903 0.000002 0.000000
								CHANNELS 3 Yrotation Xrotation Zrotation
								JOINT RightWrist
								{
									OFFSET 19.846718 0.012767 0.000000
									CHANNELS 3 Yrotation Xrotation Zrotation
									End Site
									{
										OFFSET 14.973145 0.000001 0.000000
									}
								}
							}
						}
					}
					JOINT LeftCollar
					{
						OFFSET -2.894404 0.000001 6.791374
						CHANNELS 3 Yrotation Xrotation Zrotation
						JOINT LeftShoulder
						{
							OFFSET -13.574684 -0.000001 0.000000
							CHANNELS 3 Yrotation Xrotation Zrotation
							JOINT LeftElbow
							{
								OFFSET -23.923903 -0.000002 0.000000
								CHANNELS 3 Yrotation Xrotation Zrotation
								JOINT LeftWrist
								{
									OFFSET -19.846718 0.012763 0.000000
									CHANNELS 3 Yrotation Xrotation Zrotation
									End Site
									{
										OFFSET -14.973145 -0.000001 0.000000
									}
								}
							}
						}
					}
				}
			}
		}
	}
	JOINT RightHip
	{
		OFFSET 9.469263 0.004643 0.045487
		CHANNELS 3 Yrotation Xrotation Zrotation
		JOINT RightKnee
		{
			OFFSET 0.000000 0.002661 -40.478676
			CHANNELS 3 Yrotation Xrotation Zrotation
			JOINT RightAnkle
			{
				OFFSET 0.000000 0.049106 -35.224068
				CHANNELS 3 Yrotation Xrotation Zrotation
				JOINT RightToe
				{
					OFFSET -0.000001 12.539529 -6.151390
					CHANNELS 3 Yrotation Xrotation Zrotation
					End Site
					{
						OFFSET -0.000001 5.044994 -1.291870
					}
				}
			}
		}
	}
	JOINT LeftHip
	{
		OFFSET -9.469263 0.004641 0.045487
		CHANNELS 3 Yrotation Xrotation Zrotation
		JOINT LeftKnee
		{
			OFFSET 0.000000 0.002661 -40.478676
			CHANNELS 3 Yrotation Xrotation Zrotation
			JOINT LeftAnkle
			{
				OFFSET 0.000000 0.049106 -35.224068
				CHANNELS 3 Yrotation Xrotation Zrotation
				JOINT LeftToe
				{
					OFFSET -0.000001 12.539529 -6.151390
					CHANNELS 3 Yrotation Xrotation Zrotation
					End Site
					{
						OFFSET -0.000001 5.044994 -1.291870
					}
				}
			}
		}
	}
}
MOTION
Frames: 16
Frame Time: 0.016667
28.532785 16.758982 83.482475 -2.412585 -0.298816 -114.372535 -2.118786 -3.656527 2.307107 -0.884363 -1.743855 1.082624 -0.884363 -1.743855 1.082622 -0.660133 -1.309467 0.809382 1.561621 -12.575853 -4.846692 0.948208 12.780385 -8.576235 9.217188 5.126937 -2.404114 42.474573 -15.542063 -12.174708 -24.548492 -61.945806 84.345678 -40.938112 38.369233 51.577805 -8.388347 5.660754 -7.306030 -40.015507 -9.385370 21.004003 -1.161599 -63.396682 -62.484456 27.158234 11.198568 -72.967799 -4.899341 4.423621 -8.367769 6.239337 -20.425619 -21.886354 -3.105206 9.795413 -2.578317 -2.014864 1.761218 -0.544748 0.887930 -2.448457 11.614282 -1.007793 -6.620688 12.875698 2.939195 2.158446 9.482744 0.712626 -0.267770 0.317396 
28.113565 16.432539 83.451797 -2.548448 -0.162171 -114.654971 -2.287356 -3.729740 2.382230 -0.919424 -1.749792 1.135504 -0.919423 -1.749791 1.135506 -0.686265 -1.314060 0.848933 1.573198 -12.562347 -4.852700 0.966911 12.805888 -8.583379 9.166776 4.515433 -2.259495 42.553462 -15.258595 -11.884291 -24.686180 -61.748926 84.523454 -40.970664 38.310616 51.557123 -8.350965 5.693864 -7.065600 -40.209214 -9.559337 21.074192 -0.746053 -63.137190 -62.872540 27.163177 11.364961 -73.226800 -4.934397 4.975664 -7.625274 5.514651 -21.573431 -20.335012 -1.941898 9.959626 -2.148244 -2.237394 1.626050 -0.652204 0.895668 -2.419010 11.387660 -0.742411 -6.477769 12.582790 2.699107 1.978901 10.057874 0.510785 -0.338555 0.290991 
27.632540 16.033283 83.416100 -2.770925 0.093614 -114.952029 -2.607154 -3.908968 2.403382 -0.942286 -1.769758 1.202540 -0.942286 -1.769760 1.202543 -0.703178 -1.329182 0.899109 1.560153 -12.500808 -4.843930 0.942022 12.919592 -8.574663 9.257496 4.680572 -2.144073 42.405766 -15.483882 -12.001093 -24.925935 -61.722289 84.978973 -41.134927 38.345618 51.434057 -8.255565 5.682627 -6.949368 -40.280364 -9.298310 21.110779 -0.473827 -63.003550 -63.154415 27.149713 11.016275 -73.244107 -5.322755 5.376239 -6.700909 3.704974 -22.764838 -15.998250 -0.120981 10.136825 -1.995164 -2.429643 1.250271 -1.227856 0.806151 -2.424409 11.338304 -0.422214 -6.234538 11.028375 2.666404 1.592747 11.293764 0.160875 -0.362497 0.251650 
26.774605 15.340755 83.369728 -2.292615 -0.338468 -115.441235 -2.036466 -3.825419 2.595368 -0.943090 -1.781313 1.244018 -0.943090 -1.781313 1.244023 -0.703637 -1.337913 0.930194 1.521897 -12.411457 -4.801623 0.881457 13.084756 -8.513817 9.307264 4.808148 -2.132266 42.178730 -15.681583 -11.923887 -24.640471 -61.875326 84.991302 -41.278569 38.381695 51.300779 -8.202514 5.710617 -6.949307 -40.163732 -8.823401 21.185693 -0.202991 -63.093654 -63.467894 27.164417 10.501853 -73.118459 -4.629727 5.956194 -4.760811 2.089732 -23.222602 -10.347930 0.229145 9.847873 -4.203148 -1.730005 1.136652 -0.272802 2.037633 -1.941829 11.333675 -0.223441 -6.199466 9.453687 2.465674 1.673846 12.366258 -0.116455 -0.853605 0.102520 
25.800192 14.764674 83.315048 -2.042826 -0.381186 -115.710303 -1.917071 -3.817826 2.631131 -0.919886 -1.784700 1.249846 -0.919886 -1.784700 1.249845 -0.686210 -1.340415 0.934626 1.477001 -12.328614 -4.741453 0.816150 13.238175 -8.421470 9.328541 4.666785 -2.107241 42.102423 -15.688140 -11.792579 -23.930900 -61.871897 84.462891 -41.345119 38.433857 51.249983 -8.116949 5.769298 -6.895175 -40.062280 -8.566291 21.090209 -0.112471 -63.235298 -63.598719 27.224130 10.058044 -72.970592 -4.513516 6.169794 -2.212559 0.406995 -23.384614 -5.169652 1.321668 9.783437 -4.685475 -1.410377 1.010931 -0.121749 2.882967 -1.358420 10.931655 -0.022144 -6.177959 8.171589 1.831856 1.513006 12.760370 -0.064761 -1.042575 -0.017005 
24.996305 14.600163 83.256554 -2.062609 -0.331291 -115.620855 -1.951182 -3.967003 2.381643 -0.879812 -1.774320 1.218559 -0.879812 -1.774321 1.218561 -0.656271 -1.332504 0.911296 1.434093 -12.297638 -4.667417 0.763627 13.296077 -8.299675 9.373761 4.734889 -2.101570 42.150679 -15.728942 -12.034885 -23.638356 -61.695917 84.194588 -41.317781 38.490524 51.281798 -8.039489 5.688418 -6.885584 -40.086541 -8.560820 20.907535 -0.186985 -63.211898 -63.556857 27.291086 9.756142 -72.858113 -4.051089 6.224031 1.255518 -1.298553 -23.211573 -1.991638 2.637987 9.853087 -3.361674 -1.371387 0.624072 -0.381809 3.359979 -0.957409 9.700382 0.224918 -6.195894 6.907842 0.774196 1.392015 12.255390 0.324695 -0.962719 -0.110653 
24.176609 14.882843 83.192551 -2.172788 -0.203869 -115.407302 -2.065387 -4.111040 2.041591 -0.838189 -1.743516 1.163947 -0.838189 -1.743516 1.163949 -0.625275 -1.309241 0.870503 1.406537 -12.312734 -4.584227 0.746972 13.269772 -8.152012 9.399090 4.932109 -2.173583 42.244969 -15.619736 -12.427609 -24.100724 -61.538611 84.566683 -41.202088 38.508115 51.392853 -8.027364 5.560065 -6.941149 -40.167782 -8.811257 20.821582 -0.066970 -63.013584 -63.699130 27.365626 9.639766 -72.795541 -4.013247 6.152123 5.476998 -2.544972 -22.635143 0.242549 4.227013 9.865264 -1.645153 -1.417143 0.129102 -0.609797 3.684075 -0.613185 7.417839 0.608369 -5.897922 5.088158 -0.872570 0.947364 11.720056 0.938824 -0.680994 -0.283466 
23.692951 15.553401 83.124428 -2.147874 -0.187249 -115.289645 -2.028151 -4.147855 1.757168 -0.801691 -1.697941 1.115166 -0.801691 -1.697940 1.115168 -0.598128 -1.274926 0.834090 1.393813 -12.349000 -4.497197 0.761386 13.205137 -7.989942 9.381624 5.087591 -2.302663 42.376840 -15.349882 -12.724398 -25.152933 -61.445256 85.393279 -41.037877 38.512022 51.576230 -8.119114 5.509319 -6.966557 -40.141333 -9.136066 20.838504 0.202576 -62.910646 -63.995348 27.460118 9.725161 -72.749404 -4.151602 6.144413 10.017285 -3.350018 -21.737518 2.201232 5.667480 9.696711 -0.615417 -1.280727 -0.217394 -0.332565 3.914449 -0.327841 4.171968 1.062788 -5.535502 2.726903 -2.728636 0.838874 11.698958 1.612479 -0.460699 -0.494332 
23.220692 16.554176 83.056732 -1.950254 -0.328950 -115.440470 -1.775842 -4.114035 1.695938 -0.782733 -1.654593 1.083505 -0.782734 -1.654594 1.083505 -0.584077 -1.242341 0.810454 1.384235 -12.363147 -4.417200 0.777522 13.181376 -7.840882 9.387910 5.247231 -2.308687 42.454871 -15.106961 -12.979818 -26.223456 -61.378457 86.210436 -40.908906 38.565499 51.749229 -8.218220 5.539699 -6.918819 -40.051037 -9.298678 20.841057 0.208403 -63.012614 -64.058910 27.525609 9.847638 -72.662093 -4.273354 6.176425 14.027049 -3.909706 -20.668622 4.032212 6.820466 9.390158 -0.154249 -0.980202 -0.237135 0.427074 4.325396 0.264130 0.582670 1.463677 -5.426129 0.387786 -4.821725 0.884522 11.384412 2.330534 -0.225284 -0.700979 
22.942442 17.768438 82.858002 -1.809113 0.044881 -115.526325 -2.007098 -3.949273 1.552337 -0.791840 -1.622898 1.067497 -0.791840 -1.622897 1.067499 -0.591007 -1.218564 0.798468 1.391324 -12.341543 -4.350702 0.817757 13.224263 -7.711903 9.451216 5.475775 -2.254271 42.453280 -15.187376 -13.180717 -26.768227 -61.299527 86.585926 -40.884546 38.630198 51.824183 -8.226758 5.544673 -6.887611 -40.022436 -9.262361 20.824413 -0.196611 -63.098298 -63.749434 27.546438 9.824773 -72.619773 -5.073493 6.425991 16.456349 -4.160077 -19.715191 5.305414 7.665592 9.086415 0.199482 -0.614540 -0.058319 1.508002 3.913489 1.197999 -3.159155 1.948868 -5.496065 -1.462085 -6.611852 0.815644 10.852075 2.693274 0.111265 -1.682378 
22.751431 19.013437 82.841843 -1.764613 0.839315 -115.634379 -2.692273 -3.700931 1.433823 -0.820302 -1.618393 1.071166 -0.820302 -1.618393 1.071168 -0.612350 -1.215240 0.801150 1.420955 -12.277830 -4.305604 0.889767 13.345627 -7.615711 9.492962 5.748884 -2.328139 42.433947 -15.584899 -13.220949 -26.681205 -61.316616 86.465134 -40.946919 38.670643 51.789885 -8.174145 5.549630 -6.930571 -40.049504 -9.160214 20.818058 -0.499190 -63.060172 -63.549528 27.519042 9.706498 -72.613059 -6.274847 6.915676 17.035694 -3.912308 -19.187861 5.611508 8.395083 9.569454 1.103754 -0.613127 -0.525097 2.365713 2.440849 1.975893 -6.805392 2.565343 -5.524072 -2.807165 -7.825600 0.892809 9.974656 2.776260 0.271113 -3.095300 
22.859009 20.590931 82.871101 -1.958114 2.042260 -115.853587 -3.910726 -3.418706 1.427759 -0.847967 -1.651216 1.104280 -0.847967 -1.651216 1.104284 -0.632949 -1.239951 0.825868 1.465998 -12.187967 -4.287063 0.978727 13.515305 -7.564478 9.493787 5.682928 -2.382373 42.388506 -15.766418 -13.056862 -26.166132 -61.479496 86.057631 -41.095800 38.740188 51.680688 -8.120200 5.569678 -6.955782 -40.052584 -9.108038 20.732674 -0.304505 -62.952481 -63.804670 27.456215 9.575264 -72.598777 -8.341973 7.427145 15.430533 -3.214403 -18.809967 5.023672 9.002247 10.022387 4.863204 -0.709969 -1.115661 1.775772 1.094943 2.608657 -9.775560 3.053416 -5.701270 -4.191819 -9.735019 0.537264 8.218927 2.906291 0.995195 -3.888237 
22.921682 20.763784 82.782997 -1.630479 1.076250 -114.413141 -2.905186 -3.703269 -0.173017 -0.875090 -1.701295 1.174034 -0.875090 -1.701295 1.174035 -0.653003 -1.277661 0.878027 1.528029 -12.057356 -4.302906 1.083550 13.760247 -7.572964 9.471232 5.286462 -2.364526 42.386583 -15.604173 -12.806933 -25.485309 -61.672838 85.533489 -41.311870 38.839932 51.542008 -8.019695 5.547437 -6.963586 -40.043777 -9.030289 20.453157 0.126483 -62.796752 -64.234371 27.327143 9.405722 -72.620176 -6.856284 6.507833 10.542143 -4.569020 -18.187788 4.164657 6.314398 9.220372 3.510438 2.316838 -0.339097 7.131075 2.165899 2.686372 -13.262265 3.444920 -6.089662 -5.580015 -10.690061 1.524217 6.957266 2.158702 0.452538 -5.499872 
23.239592 20.917259 82.736122 -1.701625 0.307221 -113.956952 -2.330000 -4.185717 -0.804802 -0.891861 -1.752727 1.263443 -0.891862 -1.752727 1.263443 -0.665223 -1.316398 0.944953 1.584717 -11.924850 -4.324030 1.175940 14.008236 -7.593766 9.433847 4.841546 -2.300841 42.460564 -15.392892 -12.605538 -24.762267 -61.793883 84.925418 -41.505495 38.907848 51.408679 -7.992830 5.640721 -6.944141 -40.039289 -9.018134 20.172607 0.533714 -62.602980 -64.529879 27.182964 9.203081 -72.792372 -5.475725 5.018861 7.165866 -6.051607 -16.696256 5.240973 5.417150 8.908921 3.088795 3.465330 -0.209024 9.107333 2.582585 2.441787 -14.551892 3.720054 -6.300754 -6.542738 -10.747953 1.341292 3.957084 1.256106 0.421900 -4.948559 
23.165415 19.882401 82.686974 -1.426913 -0.447310 -115.481601 -1.751463 -4.220757 0.535249 -0.892129 -1.788015 1.328874 -0.892129 -1.788015 1.328876 -0.665157 -1.342962 0.993972 1.608062 -11.849030 -4.320089 1.218331 14.150208 -7.578837 9.459584 4.557295 -2.105766 42.484163 -15.251971 -12.598847 -24.102109 -61.864951 84.383285 -41.653881 38.969559 51.295691 -8.012856 5.755837 -6.819610 -40.104405 -9.025254 19.972023 1.156072 -62.470666 -64.915682 27.012321 9.084644 -73.008459 -4.707249 5.034808 7.760447 -5.407902 -16.286004 7.303082 5.990780 8.684714 3.425568 2.346073 0.224469 7.230034 3.029628 2.507442 -12.763054 3.742386 -6.462176 -6.677230 -10.276277 0.549212 0.046640 0.681459 0.538742 -2.779670 
22.879887 18.294817 82.641823 -1.469999 -0.911587 -116.980049 -1.545217 -4.372928 1.922892 -0.883100 -1.809779 1.339071 -0.883100 -1.809779 1.339072 -0.658308 -1.359279 1.001604 1.613001 -11.836306 -4.288715 1.240587 14.175072 -7.517086 9.516048 4.612638 -2.053599 42.436365 -15.390938 -12.701134 -23.694263 -61.888768 84.140854 -41.786927 39.035545 51.194030 -7.993845 5.676893 -6.786061 -40.181986 -8.840581 19.895199 1.741408 -62.462285 -65.309982 26.805047 9.096430 -73.125043 -4.049229 4.907825 9.686333 -4.284059 -16.292417 7.271686 7.516452 9.203818 5.719144 0.204017 -0.053630 4.019501 3.274496 2.511800 -10.072391 3.522199 -6.573634 -6.302477 -9.228063 -0.365788 -3.557923 0.050651 0.645003 -0.767179 
